<svg width="145" height="174" viewBox="0 0 145 174" fill="none" xmlns="http://www.w3.org/2000/svg">
<path d="M84.0047 80.6528C82.9179 79.3344 81.8761 78.119 80.8986 76.8585C80.7507 76.6656 80.8086 76.209 80.9179 75.9196C82.2555 72.3054 83.6253 68.6977 84.9694 65.09C86.9887 59.6623 89.1173 54.2667 90.9758 48.7812C93.0337 42.7168 94.0305 36.4467 93.5932 30.0158C93.426 27.5206 93.008 25.0189 91.6832 22.8388C90.0369 20.1379 87.799 18.0671 84.6928 17.1089C84.1205 16.9288 83.5031 16.8967 82.6414 16.7488C84.4549 14.2729 86.1848 11.8999 87.0015 8.9738C85.1173 9.67477 83.9276 11.3018 82.3777 12.6201C81.4581 10.9738 80.6928 9.30177 79.0915 8.22138C79.0272 11.0188 79.8696 13.5848 80.9693 16.1507C80.0111 16.215 79.0786 16.2857 78.1526 16.3308C73.2072 16.5751 69.6252 19.0189 67.0914 23.1733C65.0528 26.5173 64.3133 30.2344 63.7409 34.0415C62.7763 40.4596 63.5416 46.7811 64.5576 53.1027C65.503 58.9742 66.4933 64.8456 67.458 70.717C67.5673 71.3794 67.8631 72.1897 67.5995 72.6656C67.3937 73.0321 66.4419 73 65.8181 73.1029C62.6219 73.6431 59.6123 74.6977 56.8277 76.3505C56.2939 76.6656 55.9209 76.5306 55.49 76.2219C52.2553 73.926 49.2649 71.3344 46.7054 68.3118C43.6572 64.7105 40.7697 60.9677 37.8115 57.2893C35.8436 54.8455 33.7664 52.4789 30.9304 51.0641C27.5606 49.3857 23.985 48.794 20.6152 50.9934C17.4126 53.0834 16.4737 56.286 16.9946 59.9774C17.2904 62.0932 18.1522 63.9967 19.2583 65.7974C21.7728 69.9003 25.0397 73.3151 28.8532 76.2219C32.1973 78.7685 35.7214 81.0258 39.5157 82.8393C39.6443 82.9036 39.76 82.9872 39.8179 83.2509C38.596 82.8972 37.3549 82.6078 36.1587 82.1769C28.8275 79.5467 22.5188 75.4244 17.7792 69.1543C15.3869 65.9903 13.8306 62.4211 13.8692 58.3954C13.882 56.9034 14.4158 55.3857 14.8724 53.9323C15.2132 52.8584 15.2582 52.8069 14.1843 52.6526C12.5701 52.4146 10.956 52.1574 9.3611 51.8166C8.53151 51.6365 7.74051 51.2635 6.93665 50.9741C6.93665 50.8776 6.93665 50.7747 6.94308 50.6783C8.64727 50.5625 10.3515 50.4468 12.1778 50.3246C11.7663 48.5239 11.374 46.8197 10.9817 45.1091C11.0589 45.077 11.1425 45.0512 11.2196 45.0191C13.0717 47.0641 14.2743 49.5271 15.5669 52.2539C16.6731 50.569 18.2422 49.7458 18.5637 47.63C19.3547 42.3695 21.1683 37.3599 23.3162 32.4981C25.0011 28.6846 27.0333 25.0575 29.4706 21.662C34.0494 15.2761 39.8179 10.2214 46.7569 6.60079C53.8759 2.87729 61.4965 0.793673 69.5609 0.247045C74.905 -0.119517 80.2298 -0.125948 85.5417 0.555729C91.5418 1.32744 97.2846 3.03806 102.777 5.57184C110.339 9.0574 116.835 13.9963 122.378 20.1829C128.732 27.2633 132.957 35.482 134.899 44.794C136.05 50.3117 136.507 55.9195 135.967 61.553C135.375 67.7845 133.87 73.791 131.433 79.5917C127.883 88.0419 122.745 95.4889 117.22 102.692C113.484 107.56 109.51 112.248 105.683 117.052C101.259 122.602 96.8859 128.19 92.4935 133.766C91.9469 134.454 91.426 135.161 90.9694 135.772C89.6575 134.872 88.4678 134.107 87.3488 133.251C87.0401 133.013 86.7443 132.512 86.7572 132.139C86.9887 124.859 87.2652 117.573 87.5417 110.293C87.5417 110.209 87.5867 110.126 87.606 110.042C89.5932 111.663 91.5675 113.277 93.5353 114.891C93.6511 114.788 93.7668 114.692 93.8826 114.589C93.2717 112.769 91.8762 111.36 90.9758 109.611C92.6479 108.859 94.3263 108.106 95.9984 107.348C95.9598 107.212 95.9212 107.077 95.8891 106.936C93.1559 106.37 90.4935 107.135 87.7411 107.611C87.7411 106.447 87.6768 105.341 87.7539 104.248C88.024 100.267 88.0691 96.2928 87.5289 92.3313C87.4453 91.7268 87.606 91.4953 88.2813 91.4053C95.8183 90.3956 103.085 88.4856 109.889 84.9936C115.426 82.1512 119.722 78.0225 122.661 72.5241C123.902 70.2025 124.841 67.7652 124.365 65.0835C124.121 63.7266 123.542 62.4276 123.105 61.0771C125.394 60.0546 127.909 58.9291 130.423 57.8037C130.384 57.6494 130.346 57.4886 130.307 57.3343C128.442 56.8713 126.597 57.5979 124.751 57.6944C124.751 56.2989 124.77 54.9548 124.738 53.6172C124.725 53.1928 124.558 52.7748 124.468 52.3503C124.179 52.6719 123.761 52.942 123.613 53.315C122.957 54.9741 122.378 56.6655 121.773 58.3439C121.632 58.7426 121.491 59.1349 121.31 59.6365C120.738 59.2443 120.262 58.9227 119.793 58.6012C117.478 56.987 114.963 56.8134 112.275 57.3986C109.445 58.016 107.162 59.6237 105.156 61.5272C101.24 65.2379 97.4903 69.1221 93.6897 72.9485C90.7636 75.8939 87.5224 78.4405 84.0047 80.6592V80.6528Z" fill="#697B18"/>
<path d="M48.513 138.049C49.0275 138.338 49.5098 138.756 50.0693 138.904C52.0951 139.438 54.1401 139.882 56.1787 140.351C56.4745 140.422 56.7768 140.48 57.0726 140.544C56.4295 142.171 55.5999 143.708 55.2141 145.355C54.5903 148.043 54.0243 150.789 53.8378 153.535C53.407 159.895 54.3009 166.152 55.8636 172.326C55.9536 172.68 56.0244 173.033 56.1401 173.573C55.4006 173.573 54.7703 173.573 54.1401 173.573C37.7541 173.561 21.3682 173.554 4.98219 173.541C4.08829 173.541 3.1944 173.541 2.3005 173.567C1.34229 173.586 0.622031 173.181 0.184729 172.345C-0.265435 171.483 0.184729 170.789 0.705633 170.152C3.76032 166.435 6.82786 162.724 9.88898 159.014C17.2588 150.094 24.6286 141.175 31.9985 132.255C37.6962 125.361 43.4005 118.461 49.0983 111.567C49.8442 110.66 50.616 109.772 51.2912 108.821C51.4906 108.538 51.5356 108.023 51.4327 107.669C50.0822 102.904 48.8282 98.1388 49.6513 93.1099C49.87 91.7722 50.0822 90.4346 50.333 89.1034C50.4166 88.6661 50.6095 88.2417 50.8346 87.8301C49.7799 93.753 50.8925 99.3864 53.2076 104.788C54.3909 107.56 55.9343 110.171 57.3556 112.84C59.5871 117.026 61.8443 121.207 64.1016 125.38C64.7061 126.493 65.3749 127.567 65.973 128.679C66.2624 129.219 66.6225 129.239 67.1241 129.072C71.3299 127.682 75.5036 127.85 79.6065 129.451C80.7319 129.895 81.7737 130.563 82.822 131.213C73.1113 129.734 64.5067 131.445 57.915 139.676C56.6353 136.679 55.2719 133.985 53.1562 131.412C52.8282 133.663 53.5935 135.457 54.0886 137.425C52.243 137.509 50.423 137.592 48.6031 137.676C48.5709 137.798 48.5323 137.92 48.5002 138.049H48.513Z" fill="#697B18"/>
<path d="M134.698 126.502C135.508 126.502 135.99 126.502 136.479 126.502C138.576 126.508 140.678 126.482 142.775 126.54C144.363 126.585 144.897 127.106 144.916 128.675C144.961 131.884 144.949 135.093 144.955 138.309C144.974 148.746 144.994 159.177 145 169.614C145 170.386 144.987 171.164 144.878 171.923C144.756 172.811 144.177 173.351 143.283 173.473C142.736 173.544 142.177 173.55 141.617 173.55C127.27 173.557 112.916 173.563 98.5688 173.569C97.8035 173.569 97.0382 173.569 96.1315 173.569C96.3437 172.611 96.5495 171.846 96.6781 171.074C98.0672 162.971 98.7617 154.856 96.9546 146.714C96.8839 146.386 96.8582 146.013 96.691 145.736C96.2279 144.978 96.4787 144.611 97.2376 144.283C102.64 141.955 108.042 139.614 113.424 137.241C118.08 135.19 122.73 133.106 126.865 130.09C129.791 127.955 132.26 125.428 133.508 121.878C135.283 116.836 133.643 111.916 129.952 108.501C128.337 107.009 126.53 105.884 124.35 105.427C124.1 105.376 123.862 105.254 123.508 105.125C126.826 104.418 130.62 106.161 134.415 110.077C136.055 107.878 137.694 105.678 139.334 103.485C139.476 103.556 139.611 103.627 139.752 103.698C139.174 105.363 138.595 107.035 137.997 108.752C139.72 109.067 141.367 109.376 143.244 109.723C140.595 110.952 137.913 110.739 135.161 111.125C138.157 116.283 137.804 121.363 134.685 126.508L134.698 126.502Z" fill="#697B18"/>
<path d="M71.1822 152.771C72.9443 152.938 74.7064 153.112 76.5328 153.285C76.4041 151.536 76.282 149.845 76.1598 148.154C76.2498 148.134 76.3398 148.115 76.4299 148.096C78.1726 150.507 78.8479 153.343 79.6582 156.353C76.4813 155.8 73.7289 154.597 71.0793 153.131C71.1115 153.009 71.1501 152.893 71.1822 152.771Z" fill="#697B18"/>
<path d="M84.4506 41.2017C83.3252 38.3335 82.7593 35.5039 82.7014 32.5714C82.785 32.5328 82.8686 32.4878 82.9522 32.4492C83.7497 33.9219 84.5535 35.3946 85.4024 36.9573C86.8558 35.8769 88.2835 34.8158 89.7175 33.7547C88.7143 36.7451 86.5728 38.848 84.4571 41.2017H84.4506Z" fill="#697B18"/>
<path d="M114.643 129.46C111.743 128.167 109.164 126.823 106.823 124.669C108.778 124.63 110.335 125.479 112.148 125.897C112.38 124.193 112.611 122.514 112.836 120.836C114.277 123.505 114.47 126.386 114.643 129.46Z" fill="#697B18"/>
<path d="M101.439 80.2527C100.848 77.2173 100.925 74.3362 101.626 71.468C101.709 71.4487 101.799 71.4294 101.883 71.4102C102.327 73.0307 102.764 74.6578 103.24 76.3877C104.906 75.6739 106.513 74.9857 108.128 74.2976C108.173 74.3812 108.218 74.4648 108.263 74.5549C106.314 76.7864 103.992 78.5613 101.439 80.2527Z" fill="#697B18"/>
<path d="M70.0166 28.1835C71.277 28.7687 72.5503 29.3282 73.7979 29.9391C74.7883 30.4279 74.8526 30.4215 75.1034 29.3089C75.3414 28.2607 75.5664 27.2124 75.8173 26.1642C75.9009 25.8233 76.0423 25.4889 76.2546 25.1738C77.0456 28.1192 77.0777 31.071 76.7883 34.2607C74.1902 32.4472 71.7272 30.7944 69.8494 28.46C69.9008 28.3636 69.9587 28.2735 70.0101 28.1771L70.0166 28.1835Z" fill="#697B18"/>
<path d="M91.9624 159.535C89.4029 157.85 87.0749 156.017 85.1006 153.779C85.1456 153.689 85.1842 153.599 85.2292 153.509C86.226 153.914 87.2228 154.319 88.2131 154.731C88.8241 154.988 89.435 155.252 90.046 155.515C90.2389 154.917 90.4318 154.319 90.6183 153.721C90.9206 152.763 91.2164 151.805 91.5315 150.782C92.3482 152.113 92.4768 154.988 91.9624 159.535Z" fill="#697B18"/>
<path d="M71.3098 42.5369C72.3259 43.5144 73.3356 44.4854 74.3516 45.4629C75.0783 46.1575 75.1748 46.1125 75.6828 45.27C76.4353 44.0224 77.252 42.8198 78.178 41.3857C78.2745 43.4758 77.3292 46.6076 75.6635 50.0418C74.3259 49.2572 71.6442 44.8777 71.3162 42.5369H71.3098Z" fill="#697B18"/>
<path d="M30.6817 60.6779C27.955 61.8933 25.3634 63.2117 22.2444 63.3339C22.9389 62.8065 23.627 62.2728 24.328 61.7583C25.029 61.2438 25.7428 60.7486 26.4373 60.2599C25.0933 58.8965 23.8714 57.6554 22.656 56.4206L22.8232 56.2148C25.6978 57.1473 28.1673 58.8129 30.6882 60.6715L30.6817 60.6779Z" fill="#697B18"/>
<path d="M64.5506 88.1827C62.9622 85.6425 62.0426 82.8901 61.4702 80.009C61.5602 79.9511 61.6567 79.8932 61.7467 79.8418C62.75 81.2244 63.7532 82.6007 64.7243 83.9447C65.9719 82.7036 67.2259 81.456 68.5378 80.1441C68.705 81.5781 66.6535 85.636 64.5442 88.1827H64.5506Z" fill="#697B18"/>
<path d="M85.359 137.891C84.9668 140.881 83.732 143.57 82.4587 146.341C80.6002 143.846 78.9346 141.396 78.2465 138.348C79.2818 139.383 80.3365 140.393 81.3397 141.46C81.9893 142.148 82.1372 142.161 82.6774 141.357C83.4877 140.142 84.3237 138.946 85.1468 137.743L85.3655 137.891H85.359Z" fill="#697B18"/>
<path d="M117.065 69.7325C113.907 69.1923 111.283 67.6296 108.653 65.874C111.412 64.382 114.126 63.1537 117.193 62.7871C115.785 63.8418 114.377 64.9029 112.885 66.0219C114.267 67.2502 115.663 68.4913 117.058 69.7325H117.065Z" fill="#697B18"/>
<path d="M31.4823 67.5955C33.0321 68.245 34.5755 68.8945 36.2154 69.5826C36.6592 67.9106 37.0836 66.3093 37.508 64.708C37.6109 64.7209 37.7203 64.7337 37.8232 64.7466C38.5241 67.5247 38.4662 70.3415 38.1511 73.3254C35.4244 71.8592 33.2443 69.9685 31.3151 67.7756C31.3729 67.7112 31.4244 67.6469 31.4823 67.5891V67.5955Z" fill="#697B18"/>
<path d="M119.601 115.841C120.842 114.626 122.057 113.443 123.266 112.259C123.33 112.311 123.401 112.362 123.465 112.414C122.604 115.218 121.06 117.648 119.176 120.15C117.948 117.34 116.668 114.78 116.372 111.886L116.636 111.726C117.588 113.044 118.533 114.362 119.601 115.848V115.841Z" fill="#697B18"/>
<path d="M61.0473 96.802C58.5006 95.4901 55.954 94.1847 53.4073 92.8728C53.4524 92.7441 53.5038 92.6091 53.5488 92.4805C55.2466 92.7827 56.9444 93.085 58.7193 93.4001C58.9894 91.6059 58.4878 89.8309 59.253 88.0303C60.5457 90.8727 61.0216 93.7152 61.3045 96.5898C61.2145 96.6606 61.1244 96.7313 61.0408 96.802H61.0473Z" fill="#697B18"/>
<path d="M64.5512 103.828C65.3293 106.613 65.9081 109.416 65.7795 112.677C63.1942 111.076 60.7891 109.59 58.3839 108.105C58.4418 107.963 58.4932 107.822 58.5511 107.68C60.1524 108.072 61.7601 108.458 63.4258 108.863C63.6894 107.204 63.9724 105.487 64.2489 103.764C64.3518 103.783 64.4547 103.802 64.5576 103.822L64.5512 103.828Z" fill="#697B18"/>
<path d="M74.7596 96.8009C72.7275 99.2382 70.3223 100.91 67.7178 102.563C67.3448 99.5534 67.3962 96.6659 68.3544 93.8105C68.6567 95.1996 69.0168 96.5758 69.2419 97.9778C69.3641 98.7495 69.6342 98.8267 70.2709 98.5437C71.4477 98.0228 72.6439 97.5469 73.84 97.0582C74.0844 96.9617 74.348 96.9167 74.7596 96.8009Z" fill="#697B18"/>
</svg>
